HIERARCHY
ROOT Hips
{
	OFFSET 0.00000 0.00000 0.00000
	CHANNELS 6 Xposition Yposition Zposition Zrotation Yrotation Xrotation 
	JOINT LHipJoint
	{
		OFFSET 0 0 0
		CHANNELS 3 Zrotation Yrotation Xrotation
		JOINT LeftUpLeg
		{
			OFFSET 1.58161 -1.81893 0.78828
			CHANNELS 3 Zrotation Yrotation Xrotation
			JOINT LeftLeg
			{
				OFFSET 2.53374 -6.96141 0.00000
				CHANNELS 3 Zrotation Yrotation Xrotation
				JOINT LeftFoot
				{
					OFFSET 2.63509 -7.23986 0.00000
					CHANNELS 3 Zrotation Yrotation Xrotation
					JOINT LeftToeBase
					{
						OFFSET 0.14115 -0.38781 2.05350
						CHANNELS 3 Zrotation Yrotation Xrotation
						End Site
						{
							OFFSET 0.00000 -0.00000 1.05543
						}
					}
				}
			}
		}
	}
	JOINT RHipJoint
	{
		OFFSET 0 0 0
		CHANNELS 3 Zrotation Yrotation Xrotation
		JOINT RightUpLeg
		{
			OFFSET -1.11138 -1.81893 0.78828
			CHANNELS 3 Zrotation Yrotation Xrotation
			JOINT RightLeg
			{
				OFFSET -2.58392 -7.09926 0.00000
				CHANNELS 3 Zrotation Yrotation Xrotation
				JOINT RightFoot
				{
					OFFSET -2.66423 -7.31992 0.00000
					CHANNELS 3 Zrotation Yrotation Xrotation
					JOINT RightToeBase
					{
						OFFSET -0.18831 -0.51739 2.12114
						CHANNELS 3 Zrotation Yrotation Xrotation
						End Site
						{
							OFFSET -0.00000 -0.00000 1.09845
						}
					}
				}
			}
		}
	}
	JOINT LowerBack
	{
		OFFSET 0 0 0
		CHANNELS 3 Zrotation Yrotation Xrotation
		JOINT Spine
		{
			OFFSET -0.01511 1.97958 -0.08829
			CHANNELS 3 Zrotation Yrotation Xrotation
			JOINT Spine1
			{
				OFFSET 0.08344 1.97334 -0.04330
				CHANNELS 3 Zrotation Yrotation Xrotation
				JOINT Neck
				{
					OFFSET 0 0 0
					CHANNELS 3 Zrotation Yrotation Xrotation
					JOINT Neck1
					{
						OFFSET 0.00559 1.76246 0.31246
						CHANNELS 3 Zrotation Yrotation Xrotation
						JOINT Head
						{
							OFFSET -0.07011 1.80354 -0.30524
							CHANNELS 3 Zrotation Yrotation Xrotation
							End Site
							{
								OFFSET -0.02385 1.83547 -0.13906
							}
						}
					}
				}
				JOINT LeftShoulder
				{
					OFFSET 0 0 0
					CHANNELS 3 Zrotation Yrotation Xrotation
					JOINT LeftArm
					{
						OFFSET 3.20667 1.30156 -0.60240
						CHANNELS 3 Zrotation Yrotation Xrotation
						JOINT LeftForeArm
						{
							OFFSET 4.95663 -0.00000 0.00000
							CHANNELS 3 Zrotation Yrotation Xrotation
							JOINT LeftHand
							{
								OFFSET 3.38177 -0.00000 0.00000
								CHANNELS 3 Zrotation Yrotation Xrotation
								JOINT LeftFingerBase
								{
									OFFSET 0 0 0
									CHANNELS 3 Zrotation Yrotation Xrotation
									JOINT LeftHandIndex1
									{
										OFFSET 0.66291 -0.00000 0.00000
										CHANNELS 3 Zrotation Yrotation Xrotation
										End Site
										{
											OFFSET 0.53445 -0.00000 0.00000
										}
									}
								}
								JOINT LThumb
								{
									OFFSET 0 0 0
									CHANNELS 3 Zrotation Yrotation Xrotation
									End Site
									{
										OFFSET 0.54261 -0.00000 0.54261
									}
								}
							}
						}
					}
				}
				JOINT RightShoulder
				{
					OFFSET 0 0 0
					CHANNELS 3 Zrotation Yrotation Xrotation
					JOINT RightArm
					{
						OFFSET -3.06877 1.34672 -0.60964
						CHANNELS 3 Zrotation Yrotation Xrotation
						JOINT RightForeArm
						{
							OFFSET -5.08365 -0.00000 0.00000
							CHANNELS 3 Zrotation Yrotation Xrotation
							JOINT RightHand
							{
								OFFSET -3.35984 -0.00000 0.00000
								CHANNELS 3 Zrotation Yrotation Xrotation
								JOINT RightFingerBase
								{
									OFFSET 0 0 0
									CHANNELS 3 Zrotation Yrotation Xrotation
									JOINT RightHandIndex1
									{
										OFFSET -0.82076 -0.00000 0.00000
										CHANNELS 3 Zrotation Yrotation Xrotation
										End Site
										{
											OFFSET -0.66172 -0.00000 0.00000
										}
									}
								}
								JOINT RThumb
								{
									OFFSET 0 0 0
									CHANNELS 3 Zrotation Yrotation Xrotation
									End Site
									{
										OFFSET -0.67182 -0.00000 0.67182
									}
								}
							}
						}
					}
				}
			}
		}
	}
}
MOTION
Frames: 13
Frame Time: .0083333
-1.4769 15.9663 -3.1035 38.1003 30.7138 106.0370 0.0000 0.0000 0.0000 10.2312 -36.5105 -102.2630 2.7493 10.2778 29.8810 -2.1420 -25.2793 14.9865 0.5684 4.8285 13.4202 0.0000 0.0000 0.0000 -8.8020 -11.1999 -126.3704 -9.3790 -17.0455 57.3917 -0.2443 -4.6046 -12.1815 -0.4080 -4.1005 11.3597 9.4946 1.7656 -0.2999 10.9507 1.5205 8.1285 6.6830 1.0104 8.8758 -0.9768 -11.1503 -11.7894 0.0295 -15.0704 -2.5579 -0.5171 -7.6688 1.1955 0.0000 0.0000 0.0000 -83.8545 -2.7195 72.3354 68.2925 -58.1424 -41.3180 -0.0000 -0.0000 0.5578 45.8527 18.5727 18.1663 -7.1250 0.0000 -0.0000 19.3495 54.6710 4.7296 0.0000 0.0000 0.0000 -19.0961 47.3510 -50.1702 -12.9205 21.1707 -2.4245 0.0000 -0.0000 -0.5470 -48.2191 15.2497 -16.4032 7.1250 -0.0000 -0.0000 -13.2786 -8.2028 -11.5717
-1.4730 15.9694 -3.1046 38.0427 30.5839 106.0330 0.0000 0.0000 0.0000 10.1006 -36.5058 -102.2494 2.7339 10.2513 29.7945 -2.1618 -25.3896 15.0796 0.5132 4.5918 12.7479 0.0000 0.0000 0.0000 -8.9418 -11.1999 -126.3555 -9.3676 -17.0386 57.3530 -0.2351 -4.7192 -12.1232 -0.3604 -3.8567 10.6739 9.4151 1.7698 -0.3864 10.9218 1.5137 8.1303 6.6996 1.0023 8.9264 -1.0262 -11.1710 -11.7938 0.1351 -15.0940 -2.6086 -0.4784 -7.6793 1.1920 0.0000 0.0000 0.0000 -83.8537 -2.7466 72.3298 68.3347 -58.1499 -41.3538 -0.0000 -0.0000 0.4196 45.7660 18.5711 18.1136 -7.1250 0.0000 -0.0000 19.2440 54.6461 4.6904 0.0000 0.0000 0.0000 -19.0830 47.3212 -50.0351 -12.9760 21.2520 -2.4446 0.0000 -0.0000 -0.5597 -48.4501 14.6894 -15.9667 7.1250 -0.0000 -0.0000 -13.5509 -8.8883 -11.6335
-1.4689 15.9716 -3.1069 38.0451 30.5085 106.1310 0.0000 0.0000 0.0000 10.1660 -36.5063 -102.3712 2.7218 10.2305 29.7263 -2.1645 -25.4393 15.3071 0.4968 4.5191 12.5418 0.0000 0.0000 0.0000 -9.1383 -11.2712 -126.3413 -9.3519 -17.0289 57.2993 -0.2374 -4.7862 -12.2203 -0.3678 -3.8956 10.7832 9.4095 1.7689 -0.5337 10.9095 1.4909 8.1000 6.6939 0.9908 8.9811 -1.0354 -11.1611 -11.8014 0.1742 -15.0800 -2.6335 -0.4644 -7.6718 1.1891 0.0000 -0.0000 0.0000 -83.8462 -2.7155 72.3344 68.5160 -58.1821 -41.5079 -0.0000 -0.0000 0.3178 45.6586 18.4144 17.9126 -7.1250 0.0000 -0.0000 19.0758 54.4199 4.5402 0.0000 -0.0000 0.0000 -19.1020 47.2981 -49.9958 -13.0141 21.3078 -2.4584 0.0000 -0.0000 -0.4834 -48.3930 14.6005 -15.8467 7.1250 -0.0000 -0.0000 -13.5370 -9.0289 -11.5817
-1.4660 15.9746 -3.1098 38.0772 30.5355 106.2340 0.0000 0.0000 0.0000 10.5350 -36.4943 -102.5456 2.7116 10.2128 29.6686 -2.1807 -25.4978 15.1931 0.4383 4.2482 11.7759 0.0000 0.0000 0.0000 -9.1105 -11.3092 -126.3948 -9.3397 -17.0214 57.2577 -0.2434 -4.7631 -12.3020 -0.3743 -3.9293 10.8779 9.4909 1.7720 -0.6308 10.9348 1.4789 8.0604 6.6794 0.9892 8.9984 -1.0041 -11.1232 -11.8230 0.0949 -15.0334 -2.6607 -0.4900 -7.6506 1.1750 -0.0000 0.0000 0.0000 -83.8404 -2.6766 72.3485 68.6568 -58.2068 -41.6275 -0.0000 -0.0000 0.2333 45.5748 18.3456 17.8032 -7.1250 0.0000 -0.0000 18.9583 54.3111 4.4596 -0.0000 0.0000 0.0000 -19.1413 47.2561 -49.8756 -13.0322 21.3343 -2.4650 0.0000 -0.0000 -0.4989 -48.1574 15.0408 -16.1620 7.1250 -0.0000 -0.0000 -13.2901 -8.5073 -11.4999
-1.4641 15.9777 -3.1125 38.0918 30.5680 106.2800 0.0000 0.0000 0.0000 10.8949 -36.4884 -102.6692 2.7013 10.1951 29.6107 -2.1869 -25.4843 14.9148 0.3810 3.9642 10.9759 0.0000 0.0000 0.0000 -9.0313 -11.3185 -126.4299 -9.3303 -17.0157 57.2257 -0.2459 -4.7327 -12.3172 -0.3958 -4.0394 11.1875 9.5514 1.7822 -0.6911 10.9712 1.4825 8.0277 6.6885 0.9933 8.9999 -1.0477 -11.1323 -11.7526 0.1322 -15.0440 -2.7697 -0.4637 -7.6562 1.1337 0.0000 -0.0000 0.0000 -83.8333 -2.6628 72.3960 68.6571 -58.2068 -41.6278 -0.0000 -0.0000 0.1824 45.5312 18.3738 17.8026 -7.1250 0.0000 -0.0000 18.9129 54.3353 4.4596 0.0000 -0.0000 0.0000 -19.1379 47.2002 -49.5721 -13.0648 21.3821 -2.4769 0.0000 -0.0000 -0.6742 -47.9564 15.1206 -16.1332 7.1250 -0.0000 -0.0000 -13.1490 -8.4662 -11.3819
-1.4608 15.9810 -3.1149 38.1076 30.5533 106.2890 0.0000 0.0000 0.0000 10.7668 -36.5023 -102.6311 2.6913 10.1778 29.5544 -2.1710 -25.4542 15.2092 0.4013 4.0672 11.2659 0.0000 0.0000 0.0000 -8.9378 -11.3218 -126.4674 -9.3293 -17.0150 57.2220 -0.2370 -4.7697 -12.1993 -0.3671 -3.8917 10.7721 9.5827 1.8048 -0.7453 10.9944 1.5033 8.0050 6.7007 1.0041 9.0072 -1.0455 -11.1903 -11.6952 0.1631 -15.1271 -2.8579 -0.4508 -7.6990 1.0973 -0.0000 -0.0000 0.0000 -83.8180 -2.7154 72.5184 68.4762 -58.1750 -41.4741 -0.0000 -0.0000 0.1625 45.5101 18.2163 17.6521 -7.1250 0.0000 -0.0000 18.8501 54.1309 4.3485 -0.0000 -0.0000 0.0000 -19.1177 47.0576 -49.1921 -13.1246 21.4695 -2.4987 0.0000 -0.0000 -0.8654 -47.8195 14.6303 -15.5758 7.1250 -0.0000 -0.0000 -13.1792 -9.1756 -11.2179
-1.4561 15.9832 -3.1173 38.0674 30.4451 106.2540 0.0000 0.0000 0.0000 10.3166 -36.4950 -102.5146 2.6837 10.1645 29.5111 -2.0820 -25.1974 16.1557 0.5467 4.7371 13.1602 0.0000 0.0000 0.0000 -8.9471 -11.3163 -126.5004 -9.3251 -17.0124 57.2076 -0.2279 -4.8123 -12.0818 -0.3045 -3.5476 9.8074 9.5193 1.8399 -0.7922 10.9882 1.5438 8.0010 6.7348 1.0187 9.0262 -0.9033 -11.2173 -11.6807 0.0277 -15.1866 -2.9413 -0.5079 -7.7343 1.0454 -0.0000 -0.0000 0.0000 -83.8400 -2.7959 72.6310 68.1261 -58.1126 -41.1766 -0.0000 -0.0000 0.2208 45.5874 18.0982 17.5929 -7.1250 0.0000 -0.0000 18.9141 54.0016 4.3034 -0.0000 -0.0000 0.0000 -19.2281 46.9568 -49.2180 -13.0885 21.4167 -2.4855 0.0000 -0.0000 -0.7130 -47.7530 14.4174 -15.3304 7.1250 -0.0000 -0.0000 -13.1876 -9.4860 -11.1411
-1.4518 15.9844 -3.1207 37.9975 30.3313 106.2370 0.0000 0.0000 0.0000 10.1797 -36.4655 -102.5380 2.6776 10.1540 29.4768 -1.9525 -24.7477 16.9731 0.7380 5.4882 15.3064 0.0000 0.0000 0.0000 -9.0523 -11.3269 -126.5119 -9.3093 -17.0027 57.1537 -0.2155 -4.8737 -11.9234 -0.1420 -2.4285 6.6916 9.4532 1.8633 -0.8584 10.9648 1.5660 7.9966 6.7505 1.0251 9.0570 -0.7652 -11.2046 -11.7025 -0.0853 -15.1904 -3.0014 -0.5589 -7.7407 1.0097 -0.0000 -0.0000 0.0000 -83.8571 -2.8388 72.6777 67.9424 -58.0793 -41.0207 -0.0000 -0.0000 0.2816 45.7062 18.1886 17.7415 -7.1250 0.0000 -0.0000 19.0778 54.1470 4.4116 -0.0000 -0.0000 0.0000 -19.4221 46.9796 -49.4351 -12.9906 21.2734 -2.4499 0.0000 -0.0000 -0.4624 -47.7224 14.5184 -15.4147 7.1250 -0.0000 -0.0000 -13.1454 -9.3587 -11.1380
-1.4480 15.9844 -3.1243 37.9414 30.2658 106.2400 0.0000 0.0000 0.0000 10.0825 -36.4256 -102.5724 2.6741 10.1478 29.4565 -1.9503 -24.7899 17.2006 0.7472 5.5216 15.4026 0.0000 0.0000 0.0000 -9.1669 -11.3546 -126.4968 -9.2862 -16.9884 57.0747 -0.2098 -4.8823 -11.8317 -0.0798 -1.8223 5.0148 9.4406 1.8720 -0.9117 10.9461 1.5692 7.9891 6.7395 1.0260 9.0799 -0.6957 -11.1742 -11.8176 -0.1417 -15.1560 -2.9447 -0.5942 -7.7249 1.0378 -0.0000 -0.0000 0.0000 -83.8541 -2.8742 72.6718 67.8798 -58.0679 -40.9676 -0.0000 -0.0000 0.2526 45.7685 18.2387 17.8219 -7.1250 0.0000 -0.0000 19.1647 54.2266 4.4707 -0.0000 -0.0000 0.0000 -19.5875 46.9470 -49.3486 -12.9690 21.2417 -2.4420 0.0000 -0.0000 -0.5068 -47.5809 14.4792 -15.3034 7.1250 -0.0000 -0.0000 -13.0675 -9.4569 -11.0417
-1.4443 15.9807 -3.1270 37.9083 30.1988 106.2210 0.0000 0.0000 0.0000 9.8684 -36.4134 -102.5318 2.6731 10.1461 29.4512 -1.9734 -24.9388 17.3626 0.7231 5.4337 15.1499 0.0000 0.0000 0.0000 -9.3153 -11.4024 -126.4378 -9.2645 -16.9750 57.0005 -0.2324 -4.7332 -12.0900 -0.3446 -3.7722 10.4367 9.4178 1.8676 -0.9439 10.9385 1.5596 7.9794 6.7438 1.0197 9.0877 -0.6999 -11.1534 -11.8764 -0.1674 -15.1252 -2.8953 -0.6061 -7.7094 1.0622 -0.0000 0.0000 0.0000 -83.8568 -2.8798 72.6472 67.7571 -58.0455 -40.8635 -0.0000 -0.0000 0.2240 45.7395 18.1350 17.7133 -7.1250 0.0000 -0.0000 19.1044 54.0877 4.3900 -0.0000 0.0000 0.0000 -19.7078 47.0700 -49.6658 -12.8935 21.1309 -2.4147 0.0000 -0.0000 -0.0263 -47.2758 14.5521 -15.2194 7.1250 -0.0000 -0.0000 -12.8630 -9.4545 -10.8601
-1.4416 15.9802 -3.1298 37.9224 30.1627 106.2200 0.0000 0.0000 0.0000 9.7710 -36.4366 -102.5352 2.6736 10.1470 29.4541 -1.9745 -24.9962 17.5805 0.7246 5.4392 15.1656 0.0000 0.0000 0.0000 -9.3526 -11.4334 -126.4174 -9.2565 -16.9700 56.9729 -0.2544 -4.6081 -12.3518 -0.7553 -5.5507 15.4863 9.4276 1.8840 -1.0104 10.9459 1.5702 7.9667 6.7512 1.0249 9.1132 -0.7611 -11.1900 -11.8275 -0.1247 -15.1687 -2.9405 -0.5815 -7.7305 1.0471 0.0000 -0.0000 0.0000 -83.8255 -2.9002 72.7424 67.7066 -58.0362 -40.8206 -0.0000 -0.0000 0.2509 45.6278 18.1945 17.7011 -7.1250 0.0000 -0.0000 18.9854 54.1339 4.3829 0.0000 -0.0000 0.0000 -19.8169 47.0776 -49.9103 -12.7962 20.9879 -2.3798 0.0000 0.0000 0.3986 -46.9972 14.6932 -15.2148 7.1250 -0.0000 -0.0000 -12.6592 -9.3518 -10.7056
-1.4392 15.9846 -3.1327 37.9513 30.1556 106.1910 0.0000 0.0000 0.0000 9.6088 -36.4736 -102.4720 2.6744 10.1483 29.4583 -1.9972 -25.1430 17.7443 0.7071 5.3746 14.9801 0.0000 0.0000 0.0000 -9.3461 -11.4491 -126.3605 -9.2573 -16.9705 56.9759 -0.2556 -4.6559 -12.4117 -0.5813 -4.8821 13.5726 9.4982 1.8980 -1.0251 10.9547 1.5828 7.9588 6.7236 1.0354 9.1158 -0.8446 -11.2195 -11.7346 -0.0512 -15.2019 -3.0558 -0.5380 -7.7463 1.0060 0.0000 0.0000 0.0000 -83.7662 -2.9302 72.8664 67.8164 -58.0563 -40.9138 -0.0000 -0.0000 0.2638 45.5814 18.4220 17.8741 -7.1250 0.0000 -0.0000 18.9847 54.4092 4.5123 0.0000 0.0000 0.0000 -19.8845 47.0271 -49.9707 -12.7280 20.8874 -2.3554 0.0000 0.0000 0.6920 -46.8667 14.7276 -15.1818 7.1250 -0.0000 -0.0000 -12.5710 -9.3463 -10.6286
-1.4369 15.9894 -3.1361 37.9480 30.1857 106.1330 0.0000 0.0000 0.0000 9.5322 -36.4755 -102.3862 2.6739 10.1474 29.4554 -1.9970 -25.1657 17.8411 0.7077 5.3767 14.9863 0.0000 0.0000 0.0000 -9.3218 -11.4285 -126.2936 -9.2584 -16.9712 56.9795 -0.2544 -4.7175 -12.4440 -0.4814 -4.4492 12.3441 9.6043 1.9093 -1.0291 10.9710 1.5884 7.9761 6.6866 1.0449 9.1427 -0.8419 -11.2092 -11.6881 -0.0456 -15.1942 -3.2183 -0.5256 -7.7446 0.9455 -0.0000 0.0000 0.0000 -83.6988 -2.9823 72.9514 68.0786 -58.1040 -41.1363 -0.0000 -0.0000 0.1759 45.5848 18.5883 18.0218 -7.1250 0.0000 -0.0000 19.0289 54.6198 4.6227 -0.0000 0.0000 0.0000 -19.9951 47.0319 -50.1141 -12.6689 20.8001 -2.3344 0.0000 0.0000 1.1113 -46.7939 14.7179 -15.1357 7.1250 -0.0000 -0.0000 -12.5283 -9.3819 -10.5814
